<?xml version="1.0" encoding="UTF-8"?>
<svg xmlns="http://www.w3.org/2000/svg">
    <symbol
        id="callout"
        viewBox="0 0 512 512"
        fill="currentColor"
    >
        <path d="M0 0h512v512H0z" fill="currentColor" fill-opacity="0.15"/>
        <rect x="0" y="0" width="64" height="512" fill="currentColor"/>
        <path d="M128 64h320v64H128zm0 160h320v64H128zm0 160h224v64H128z" fill="currentColor" fill-opacity="0.8"/>
    </symbol>

    <symbol
        id="callout-add-body"
        viewBox="0 0 24 24"
        fill="currentColor"
    >
        <path d="M9 8a1 1 0 0 0 0 2h2v2a1 1 0 1 0 2 0v-2h2a1 1 0 1 0 0-2h-2V6a1 1 0 1 0-2 0v2z" fill="currentColor"/>
        <path fill-rule="evenodd" clip-rule="evenodd" d="M4 4a3 3 0 0 1 3-3h10a3 3 0 0 1 3 3v10a3 3 0 0 1-3 3H7a3 3 0 0 1-3-3zm3-1h10a1 1 0 0 1 1 1v10a1 1 0 0 1-1 1H7a1 1 0 0 1-1-1V4a1 1 0 0 1 1-1" fill="currentColor"/>
        <path d="M5 20a1 1 0 1 0 0 2h14a1 1 0 1 0 0-2z" fill="currentColor"/>
    </symbol>

    <symbol
        id="callout-insert-after"
        viewBox="0 0 24 24"
        fill="currentColor"
    >
        <path d="M3 5a1 1 0 0 0 1 1h16a1 1 0 1 0 0-2H4a1 1 0 0 0-1 1m9 15a1 1 0 0 0 1-1v-3h3a1 1 0 1 0 0-2h-3v-3a1 1 0 1 0-2 0v3H8a1 1 0 1 0 0 2h3v3a1 1 0 0 0 1 1" fill="currentColor"/>
    </symbol>

    
</svg>